<svg width="208" height="208" viewBox="0 0 208 208" fill="none" xmlns="http://www.w3.org/2000/svg">
<rect width="208" height="208" rx="15" fill="#1C1C1C"/>
<path d="M50.0376 108.034C50.0376 108.037 50.0407 108.039 50.0432 108.037C54.2131 105.773 59.4767 106.895 62.3861 110.636C64.314 113.106 64.6668 116.596 67.754 118.272C72.5674 120.893 75.9569 115.853 80.3041 115.147C86.7933 114.114 92.4636 119.658 91.5185 126.135C90.3467 134.224 80.3419 137.311 74.7346 131.339C71.8617 128.277 71.9751 122.304 66.4561 122.027C61.9829 121.813 59.6266 126.639 54.158 126.299C44.3948 125.694 41.5335 112.683 50.032 108.031C50.0345 108.03 50.0376 108.031 50.0376 108.034Z" fill="white"/>
<path d="M74.1109 58.5329C74.115 58.5329 74.1191 58.5342 74.1225 58.5364C78.1003 61.1332 79.5976 66.2968 77.6831 70.6295C76.4105 73.5024 73.525 75.4555 73.4998 78.9836C73.4746 84.4648 79.5228 85.0571 82.1941 88.56C86.1759 93.7766 83.9834 101.4 77.8344 103.643C70.148 106.44 62.7011 99.094 65.2968 91.3321C66.6325 87.3503 71.9499 84.616 69.5684 79.6262C67.6405 75.5815 62.2727 75.7957 59.9794 70.8185C55.8852 61.937 65.9854 53.2446 74.0992 58.5294C74.1027 58.5317 74.1068 58.5329 74.1109 58.5329Z" fill="white"/>
<path d="M157.18 103.655C157.172 103.655 157.163 103.657 157.156 103.66C152.798 105.543 147.664 103.954 145.109 99.9635C143.407 97.3299 143.37 93.827 140.446 91.8739C135.898 88.8372 132.067 93.5498 127.669 93.8522C121.117 94.3058 115.964 88.2702 117.488 81.9069C119.378 73.956 129.622 71.7761 134.675 78.2276C137.271 81.5415 136.616 87.4764 142.084 88.245C146.52 88.8624 149.305 84.2632 154.723 85.0949C164.383 86.5685 166.074 99.7879 157.204 103.65C157.197 103.654 157.188 103.655 157.18 103.655Z" fill="white"/>
<path d="M128.74 150.813C128.74 150.809 128.739 150.805 128.736 150.803C125.01 147.866 123.979 142.589 126.271 138.433C127.795 135.686 130.845 133.997 131.185 130.494C131.702 125.038 125.729 123.904 123.385 120.175C119.882 114.618 122.755 107.221 129.081 105.545C136.981 103.441 143.748 111.43 140.459 118.94C138.771 122.783 133.226 125.038 135.154 130.217C136.704 134.413 142.072 134.69 143.912 139.844C147.187 149.053 136.356 156.814 128.746 150.823C128.742 150.821 128.74 150.817 128.74 150.813Z" fill="white"/>
<path d="M89.6284 162.008C95.2235 162.008 99.7593 157.473 99.7593 151.878C99.7593 146.283 95.2235 141.747 89.6284 141.747C84.0333 141.747 79.4976 146.283 79.4976 151.878C79.4976 157.473 84.0333 162.008 89.6284 162.008Z" fill="white"/>
<path d="M108.529 143.12C114.124 143.12 118.66 138.585 118.66 132.989C118.66 127.394 114.124 122.859 108.529 122.859C102.934 122.859 98.3984 127.394 98.3984 132.989C98.3984 138.585 102.934 143.12 108.529 143.12Z" fill="white"/>
<path d="M99.0788 84.1498C104.674 84.1498 109.21 79.6141 109.21 74.019C109.21 68.4239 104.674 63.8882 99.0788 63.8882C93.4837 63.8882 88.948 68.4239 88.948 74.019C88.948 79.6141 93.4837 84.1498 99.0788 84.1498Z" fill="white"/>
<path d="M117.98 65.2616C123.575 65.2616 128.11 60.7259 128.11 55.1308C128.11 49.5357 123.575 45 117.98 45C112.384 45 107.849 49.5357 107.849 55.1308C107.849 60.7259 112.384 65.2616 117.98 65.2616Z" fill="white"/>
</svg>
