<svg width="437" height="94" viewBox="0 0 437 94" fill="none" xmlns="http://www.w3.org/2000/svg">
<path d="M122.058 60.91V33.45H133.358C135.788 33.45 137.878 33.84 139.618 34.61C141.358 35.38 142.698 36.5 143.638 37.96C144.578 39.42 145.048 41.18 145.048 43.22C145.048 45.26 144.578 46.97 143.638 48.42C142.698 49.87 141.358 51 139.618 51.79C137.878 52.59 135.798 52.99 133.358 52.99H124.928L127.168 50.64V60.92H122.068L122.058 60.91ZM127.158 51.18L124.918 48.67H133.118C135.368 48.67 137.058 48.19 138.198 47.24C139.338 46.29 139.908 44.95 139.908 43.22C139.908 41.49 139.338 40.15 138.198 39.2C137.058 38.25 135.368 37.77 133.118 37.77H124.918L127.158 35.26V51.19V51.18Z" fill="white"/>
<path d="M150.148 60.91V33.45H161.448C163.878 33.45 165.968 33.84 167.708 34.61C169.448 35.38 170.788 36.5 171.728 37.96C172.668 39.42 173.138 41.18 173.138 43.22C173.138 45.26 172.668 46.96 171.728 48.4C170.788 49.84 169.448 50.95 167.708 51.73C165.968 52.52 163.888 52.91 161.448 52.91H153.018L155.258 50.63V60.91H150.158H150.148ZM155.248 51.18L153.008 48.71H161.208C163.458 48.71 165.148 48.23 166.288 47.26C167.428 46.29 167.998 44.95 167.998 43.22C167.998 41.49 167.428 40.15 166.288 39.2C165.148 38.25 163.458 37.77 161.208 37.77H153.008L155.248 35.26V51.19V51.18ZM168.108 60.91L161.168 50.95H166.618L173.598 60.91H168.108Z" fill="white"/>
<path d="M191.688 61.3C189.568 61.3 187.598 60.95 185.788 60.24C183.978 59.53 182.398 58.54 181.058 57.26C179.728 55.98 178.688 54.48 177.958 52.77C177.228 51.06 176.858 49.19 176.858 47.18C176.858 45.17 177.228 43.26 177.958 41.55C178.688 39.84 179.728 38.35 181.058 37.08C182.388 35.81 183.958 34.82 185.768 34.12C187.568 33.41 189.548 33.06 191.688 33.06C193.828 33.06 195.768 33.41 197.568 34.1C199.368 34.79 200.938 35.77 202.258 37.04C203.578 38.31 204.608 39.81 205.338 41.53C206.068 43.26 206.438 45.14 206.438 47.18C206.438 49.22 206.068 51.1 205.338 52.81C204.608 54.52 203.578 56.02 202.258 57.3C200.938 58.58 199.378 59.57 197.568 60.26C195.768 60.95 193.808 61.3 191.688 61.3ZM191.688 56.83C193.078 56.83 194.348 56.6 195.508 56.12C196.668 55.65 197.688 54.98 198.548 54.12C199.408 53.26 200.088 52.24 200.568 51.06C201.048 49.88 201.298 48.59 201.298 47.18C201.298 45.77 201.058 44.47 200.588 43.3C200.118 42.12 199.438 41.1 198.568 40.24C197.698 39.38 196.668 38.71 195.508 38.24C194.348 37.77 193.068 37.53 191.688 37.53C190.308 37.53 189.018 37.77 187.828 38.24C186.638 38.71 185.608 39.39 184.748 40.26C183.888 41.13 183.208 42.16 182.708 43.32C182.208 44.48 181.968 45.77 181.968 47.18C181.968 48.59 182.218 49.85 182.708 51.02C183.198 52.19 183.888 53.22 184.748 54.1C185.608 54.98 186.638 55.65 187.828 56.12C189.018 56.59 190.308 56.83 191.688 56.83Z" fill="white"/>
<path d="M211.848 60.91V33.45H216.048L228.048 53.49H225.848L237.658 33.45H241.858L241.938 60.91H237.038V41.02H238.018L228.058 57.81H225.748L215.548 41.02H216.728V60.91H211.868H211.848Z" fill="white"/>
<path d="M249.308 60.91V33.45H260.608C263.038 33.45 265.128 33.84 266.868 34.61C268.608 35.38 269.948 36.5 270.888 37.96C271.828 39.42 272.298 41.18 272.298 43.22C272.298 45.26 271.828 46.97 270.888 48.42C269.948 49.87 268.608 51 266.868 51.79C265.128 52.59 263.048 52.99 260.608 52.99H252.178L254.418 50.64V60.92H249.318L249.308 60.91ZM254.408 51.18L252.168 48.67H260.368C262.618 48.67 264.308 48.19 265.448 47.24C266.588 46.29 267.158 44.95 267.158 43.22C267.158 41.49 266.588 40.15 265.448 39.2C264.308 38.25 262.618 37.77 260.368 37.77H252.168L254.408 35.26V51.19V51.18Z" fill="white"/>
<path d="M282.178 60.91V37.77H273.078V33.45H296.378V37.77H287.278V60.91H282.178Z" fill="white"/>
<path d="M300.218 60.91V33.45H311.518C313.948 33.45 316.038 33.84 317.778 34.61C319.518 35.38 320.858 36.5 321.798 37.96C322.738 39.42 323.208 41.18 323.208 43.22C323.208 45.26 322.738 46.96 321.798 48.4C320.858 49.84 319.518 50.95 317.778 51.73C316.038 52.52 313.958 52.91 311.518 52.91H303.088L305.328 50.63V60.91H300.228H300.218ZM305.318 51.18L303.078 48.71H311.278C313.528 48.71 315.218 48.23 316.358 47.26C317.498 46.29 318.068 44.95 318.068 43.22C318.068 41.49 317.498 40.15 316.358 39.2C315.218 38.25 313.528 37.77 311.278 37.77H303.078L305.318 35.26V51.19V51.18ZM318.178 60.91L311.238 50.95H316.688L323.668 60.91H318.178Z" fill="white"/>
<path d="M340.658 61.3C336.918 61.3 333.988 60.24 331.848 58.12C329.718 56 328.648 52.93 328.648 48.9V33.45H333.748V48.75C333.748 51.57 334.358 53.63 335.568 54.91C336.788 56.19 338.508 56.83 340.728 56.83C342.948 56.83 344.668 56.19 345.868 54.91C347.068 53.63 347.668 51.58 347.668 48.75V33.45H352.688V48.9C352.688 52.93 351.618 56 349.488 58.12C347.358 60.24 344.408 61.3 340.638 61.3H340.658Z" fill="white"/>
<path d="M359.838 60.91V33.45H364.038L381.258 54.63H379.178V33.45H384.198V60.91H379.998L362.818 39.73H364.898V60.91H359.838Z" fill="white"/>
<path d="M392.748 61.18C391.828 61.18 391.058 60.87 390.438 60.26C389.808 59.65 389.498 58.85 389.498 57.89C389.498 56.93 389.808 56.14 390.438 55.56C391.068 54.97 391.838 54.68 392.748 54.68C393.608 54.68 394.358 54.97 394.988 55.56C395.618 56.15 395.928 56.93 395.928 57.89C395.928 58.85 395.618 59.65 394.988 60.26C394.358 60.87 393.618 61.18 392.748 61.18Z" fill="white"/>
<path d="M398.588 60.91L410.948 33.45H415.968L428.368 60.91H422.998L412.408 36.16H414.448L403.818 60.91H398.598H398.588ZM404.278 54.55L405.688 50.55H420.478L421.848 54.55H404.278Z" fill="white"/>
<path d="M431.858 60.91V33.45H436.958V60.91H431.858Z" fill="white"/>
<path d="M3.99796 50.78C7.30796 48.98 11.488 49.87 13.798 52.84C15.328 54.8 15.608 57.57 18.058 58.9C21.878 60.98 24.568 56.98 28.018 56.42C33.168 55.6 37.668 60 36.918 65.14C35.988 71.56 28.048 74.01 23.598 69.27C21.318 66.84 21.408 62.1 17.028 61.88C13.478 61.71 11.608 65.54 7.26796 65.27C-0.482045 64.79 -2.75204 54.46 3.99796 50.77V50.78Z" fill="white"/>
<path d="M23.108 11.49C26.268 13.55 27.458 17.65 25.938 21.09C24.928 23.37 22.638 24.92 22.618 27.72C22.598 32.07 27.398 32.54 29.518 35.32C32.678 39.46 30.938 45.51 26.058 47.29C19.958 49.51 14.048 43.68 16.108 37.52C17.168 34.36 21.388 32.19 19.498 28.23C17.968 25.02 13.708 25.19 11.888 21.24C8.63797 14.19 16.658 7.29001 23.098 11.49H23.108Z" fill="white"/>
<path d="M89.018 47.3C85.558 48.8 81.478 47.54 79.448 44.37C78.098 42.28 78.068 39.5 75.748 37.95C72.138 35.54 69.098 39.28 65.608 39.52C60.408 39.88 56.318 35.09 57.528 30.04C59.028 23.73 67.158 22 71.168 27.12C73.228 29.75 72.708 34.46 77.048 35.07C80.568 35.56 82.778 31.91 87.078 32.57C94.748 33.74 96.088 44.24 89.038 47.3H89.018Z" fill="white"/>
<path d="M66.458 84.72C63.498 82.39 62.678 78.2 64.498 74.9C65.708 72.72 68.128 71.38 68.398 68.6C68.808 64.27 64.068 63.37 62.208 60.41C59.428 56 61.708 50.13 66.728 48.8C72.998 47.13 78.368 53.47 75.758 59.43C74.418 62.48 70.018 64.27 71.548 68.38C72.778 71.71 77.038 71.93 78.498 76.02C81.098 83.33 72.498 89.49 66.458 84.73V84.72Z" fill="white"/>
<path d="M35.4179 93.61C39.8583 93.61 43.4579 90.0104 43.4579 85.57C43.4579 81.1296 39.8583 77.53 35.4179 77.53C30.9776 77.53 27.3779 81.1296 27.3779 85.57C27.3779 90.0104 30.9776 93.61 35.4179 93.61Z" fill="white"/>
<path d="M50.4179 78.62C54.8583 78.62 58.4579 75.0204 58.4579 70.58C58.4579 66.1396 54.8583 62.54 50.4179 62.54C45.9776 62.54 42.3779 66.1396 42.3779 70.58C42.3779 75.0204 45.9776 78.62 50.4179 78.62Z" fill="white"/>
<path d="M42.9179 31.82C47.3583 31.82 50.9579 28.2204 50.9579 23.78C50.9579 19.3396 47.3583 15.74 42.9179 15.74C38.4776 15.74 34.8779 19.3396 34.8779 23.78C34.8779 28.2204 38.4776 31.82 42.9179 31.82Z" fill="white"/>
<path d="M57.9179 16.83C62.3583 16.83 65.9579 13.2304 65.9579 8.79001C65.9579 4.34964 62.3583 0.75 57.9179 0.75C53.4776 0.75 49.8779 4.34964 49.8779 8.79001C49.8779 13.2304 53.4776 16.83 57.9179 16.83Z" fill="white"/>
</svg>
