<svg width="573" height="93" viewBox="0 0 573 93" fill="none" xmlns="http://www.w3.org/2000/svg">
<path d="M99.08 18H115.8C128.68 18 135.8 25.84 135.8 36.48C135.8 48 127.64 54.64 115.8 54.64H110.04V74H99.08V18ZM110.04 44.96H115.8C120.92 44.96 124.6 42.16 124.6 36.64C124.6 30.8 120.36 28.32 115.8 28.32H110.04V44.96ZM141.409 29.2H152.129V39.12C154.609 32.4 159.489 28.48 167.729 28.48V40.08C166.449 39.92 164.929 39.84 163.569 39.84C155.809 39.84 152.289 44.32 152.289 53.2V74H141.409V29.2ZM192.469 28.24C206.229 28.24 215.909 38.4 215.909 51.6C215.909 64.8 206.229 74.96 192.469 74.96C178.789 74.96 169.109 64.8 169.109 51.6C169.109 38.4 178.789 28.24 192.469 28.24ZM180.069 51.6C180.069 58.96 184.869 64.72 192.469 64.72C200.149 64.72 204.949 58.96 204.949 51.6C204.949 44.24 200.149 38.48 192.469 38.48C184.869 38.48 180.069 44.24 180.069 51.6ZM221.331 29.2H232.051V36.8C234.451 31.04 239.411 28.24 245.171 28.24C251.171 28.24 256.291 31.36 258.531 37.6C260.931 31.36 266.371 28.24 272.371 28.24C280.531 28.24 287.331 33.92 287.331 45.52V74H276.451V47.28C276.451 41.52 273.891 37.52 268.291 37.52C262.531 37.52 259.811 41.84 259.811 47.68V74H248.931V47.28C248.931 41.52 246.291 37.52 240.771 37.52C235.011 37.52 232.211 41.84 232.211 47.68V74H221.331V29.2ZM304.703 51.6C304.703 58.96 309.423 65.04 317.343 65.04C325.103 65.04 329.823 58.96 329.823 51.6C329.823 44.24 325.103 38.16 317.343 38.16C309.423 38.16 304.703 44.24 304.703 51.6ZM294.143 89.2V29.2H304.703V36.88C308.063 31.2 313.503 28.24 320.143 28.24C331.663 28.24 340.783 37.28 340.783 51.6C340.783 65.92 331.663 74.96 320.143 74.96C313.423 74.96 308.063 71.92 305.023 66V89.2H294.143ZM361.996 74.48C351.916 74.48 348.636 69.76 348.636 60.24V38.96H341.836V29.2H348.636V20.8L359.516 17.92V29.2H369.996V38.96H359.516V58.8C359.516 63.04 360.716 64.24 364.396 64.24C366.236 64.24 368.156 63.92 369.916 63.52V73.6C367.436 74.08 364.796 74.48 361.996 74.48ZM375.94 29.2H386.66V39.12C389.14 32.4 394.02 28.48 402.26 28.48V40.08C400.98 39.92 399.46 39.84 398.1 39.84C390.34 39.84 386.82 44.32 386.82 53.2V74H375.94V29.2ZM425.296 74.96C411.856 74.96 406.096 67.12 406.096 55.68V29.2H416.976V55.6C416.976 61.2 419.776 64.8 425.376 64.8C431.216 64.8 433.856 60.96 433.856 55.28V29.2H444.736V55.68C444.736 67.12 438.736 74.96 425.296 74.96ZM451.643 29.2H462.363V36.88C464.763 31.12 469.883 28.24 475.883 28.24C484.283 28.24 490.923 33.92 490.923 45.52V74H480.043V47.28C480.043 41.52 477.243 37.52 471.483 37.52C465.483 37.52 462.523 41.84 462.523 47.68V74H451.643V29.2ZM497.897 62.64H509.897V74H497.897V62.64ZM515.134 62.88C515.134 56.32 519.534 51.68 526.654 49.36L540.334 44.88C539.774 40.24 537.294 38.4 531.854 38.4C528.094 38.4 523.694 39.28 517.534 41.36V30.96C522.814 29.36 528.094 28.24 533.054 28.24C546.094 28.24 551.374 36 551.374 47.12V74H540.814V68C538.254 72.32 533.694 74.96 528.014 74.96C519.934 74.96 515.134 69.68 515.134 62.88ZM526.094 61.44C526.094 64.4 528.574 66.72 532.174 66.72C536.574 66.72 540.494 63.36 540.494 58.4V52.8L531.534 55.68C528.174 56.8 526.094 58.72 526.094 61.44ZM558.206 29.2H569.086V74H558.206V29.2ZM558.046 22.96V14.24H569.246V22.96H558.046Z" fill="#F7F7F7"/>
<rect y="7" width="80.7402" height="80.7402" rx="30" fill="url(#paint0_linear_942_9)"/>
<path d="M20.5215 60.5745L35.1557 45.9403L20.5215 31.3062" stroke="white" stroke-width="6" stroke-linecap="round" stroke-linejoin="round"/>
<path d="M40.0332 65.4521H59.5454" stroke="white" stroke-width="6" stroke-linecap="round" stroke-linejoin="round"/>
<defs>
<linearGradient id="paint0_linear_942_9" x1="40.3701" y1="7" x2="40.3701" y2="87.7402" gradientUnits="userSpaceOnUse">
<stop stop-color="#155DFC"/>
<stop offset="0.466346" stop-color="#114BCC"/>
<stop offset="1" stop-color="#0D3796"/>
</linearGradient>
</defs>
</svg>
