<svg width="437" height="94" viewBox="0 0 437 94" fill="none" xmlns="http://www.w3.org/2000/svg">
<path d="M122.06 60.91V33.45H133.36C135.79 33.45 137.88 33.84 139.62 34.61C141.36 35.38 142.7 36.5 143.64 37.96C144.58 39.42 145.05 41.18 145.05 43.22C145.05 45.26 144.58 46.97 143.64 48.42C142.7 49.87 141.36 51 139.62 51.79C137.88 52.59 135.8 52.99 133.36 52.99H124.93L127.17 50.64V60.92H122.07L122.06 60.91ZM127.16 51.18L124.92 48.67H133.12C135.37 48.67 137.06 48.19 138.2 47.24C139.34 46.29 139.91 44.95 139.91 43.22C139.91 41.49 139.34 40.15 138.2 39.2C137.06 38.25 135.37 37.77 133.12 37.77H124.92L127.16 35.26V51.19V51.18Z" fill="#171717"/>
<path d="M150.15 60.91V33.45H161.45C163.88 33.45 165.97 33.84 167.71 34.61C169.45 35.38 170.79 36.5 171.73 37.96C172.67 39.42 173.14 41.18 173.14 43.22C173.14 45.26 172.67 46.96 171.73 48.4C170.79 49.84 169.45 50.95 167.71 51.73C165.97 52.52 163.89 52.91 161.45 52.91H153.02L155.26 50.63V60.91H150.16H150.15ZM155.25 51.18L153.01 48.71H161.21C163.46 48.71 165.15 48.23 166.29 47.26C167.43 46.29 168 44.95 168 43.22C168 41.49 167.43 40.15 166.29 39.2C165.15 38.25 163.46 37.77 161.21 37.77H153.01L155.25 35.26V51.19V51.18ZM168.11 60.91L161.17 50.95H166.62L173.6 60.91H168.11Z" fill="#171717"/>
<path d="M191.69 61.3C189.57 61.3 187.6 60.95 185.79 60.24C183.98 59.53 182.4 58.54 181.06 57.26C179.73 55.98 178.69 54.48 177.96 52.77C177.23 51.06 176.86 49.19 176.86 47.18C176.86 45.17 177.23 43.26 177.96 41.55C178.69 39.84 179.73 38.35 181.06 37.08C182.39 35.81 183.96 34.82 185.77 34.12C187.57 33.41 189.55 33.06 191.69 33.06C193.83 33.06 195.77 33.41 197.57 34.1C199.37 34.79 200.94 35.77 202.26 37.04C203.58 38.31 204.61 39.81 205.34 41.53C206.07 43.26 206.44 45.14 206.44 47.18C206.44 49.22 206.07 51.1 205.34 52.81C204.61 54.52 203.58 56.02 202.26 57.3C200.94 58.58 199.38 59.57 197.57 60.26C195.77 60.95 193.81 61.3 191.69 61.3ZM191.69 56.83C193.08 56.83 194.35 56.6 195.51 56.12C196.67 55.65 197.69 54.98 198.55 54.12C199.41 53.26 200.09 52.24 200.57 51.06C201.05 49.88 201.3 48.59 201.3 47.18C201.3 45.77 201.06 44.47 200.59 43.3C200.12 42.12 199.44 41.1 198.57 40.24C197.7 39.38 196.67 38.71 195.51 38.24C194.35 37.77 193.07 37.53 191.69 37.53C190.31 37.53 189.02 37.77 187.83 38.24C186.64 38.71 185.61 39.39 184.75 40.26C183.89 41.13 183.21 42.16 182.71 43.32C182.21 44.48 181.97 45.77 181.97 47.18C181.97 48.59 182.22 49.85 182.71 51.02C183.2 52.19 183.89 53.22 184.75 54.1C185.61 54.98 186.64 55.65 187.83 56.12C189.02 56.59 190.31 56.83 191.69 56.83Z" fill="#171717"/>
<path d="M211.85 60.91V33.45H216.05L228.05 53.49H225.85L237.66 33.45H241.86L241.94 60.91H237.04V41.02H238.02L228.06 57.81H225.75L215.55 41.02H216.73V60.91H211.87H211.85Z" fill="#171717"/>
<path d="M249.31 60.91V33.45H260.61C263.04 33.45 265.13 33.84 266.87 34.61C268.61 35.38 269.95 36.5 270.89 37.96C271.83 39.42 272.3 41.18 272.3 43.22C272.3 45.26 271.83 46.97 270.89 48.42C269.95 49.87 268.61 51 266.87 51.79C265.13 52.59 263.05 52.99 260.61 52.99H252.18L254.42 50.64V60.92H249.32L249.31 60.91ZM254.41 51.18L252.17 48.67H260.37C262.62 48.67 264.31 48.19 265.45 47.24C266.59 46.29 267.16 44.95 267.16 43.22C267.16 41.49 266.59 40.15 265.45 39.2C264.31 38.25 262.62 37.77 260.37 37.77H252.17L254.41 35.26V51.19V51.18Z" fill="#171717"/>
<path d="M282.18 60.91V37.77H273.08V33.45H296.38V37.77H287.28V60.91H282.18Z" fill="#171717"/>
<path d="M300.22 60.91V33.45H311.52C313.95 33.45 316.04 33.84 317.78 34.61C319.52 35.38 320.86 36.5 321.8 37.96C322.74 39.42 323.21 41.18 323.21 43.22C323.21 45.26 322.74 46.96 321.8 48.4C320.86 49.84 319.52 50.95 317.78 51.73C316.04 52.52 313.96 52.91 311.52 52.91H303.09L305.33 50.63V60.91H300.23H300.22ZM305.32 51.18L303.08 48.71H311.28C313.53 48.71 315.22 48.23 316.36 47.26C317.5 46.29 318.07 44.95 318.07 43.22C318.07 41.49 317.5 40.15 316.36 39.2C315.22 38.25 313.53 37.77 311.28 37.77H303.08L305.32 35.26V51.19V51.18ZM318.18 60.91L311.24 50.95H316.69L323.67 60.91H318.18Z" fill="#171717"/>
<path d="M340.66 61.3C336.92 61.3 333.99 60.24 331.85 58.12C329.72 56 328.65 52.93 328.65 48.9V33.45H333.75V48.75C333.75 51.57 334.36 53.63 335.57 54.91C336.79 56.19 338.51 56.83 340.73 56.83C342.95 56.83 344.67 56.19 345.87 54.91C347.07 53.63 347.67 51.58 347.67 48.75V33.45H352.69V48.9C352.69 52.93 351.62 56 349.49 58.12C347.36 60.24 344.41 61.3 340.64 61.3H340.66Z" fill="#171717"/>
<path d="M359.84 60.91V33.45H364.04L381.26 54.63H379.18V33.45H384.2V60.91H380L362.82 39.73H364.9V60.91H359.84Z" fill="#171717"/>
<path d="M392.75 61.18C391.83 61.18 391.06 60.87 390.44 60.26C389.81 59.65 389.5 58.85 389.5 57.89C389.5 56.93 389.81 56.14 390.44 55.56C391.07 54.97 391.84 54.68 392.75 54.68C393.61 54.68 394.36 54.97 394.99 55.56C395.62 56.15 395.93 56.93 395.93 57.89C395.93 58.85 395.62 59.65 394.99 60.26C394.36 60.87 393.62 61.18 392.75 61.18Z" fill="#171717"/>
<path d="M398.59 60.91L410.95 33.45H415.97L428.37 60.91H423L412.41 36.16H414.45L403.82 60.91H398.6H398.59ZM404.28 54.55L405.69 50.55H420.48L421.85 54.55H404.28Z" fill="#171717"/>
<path d="M431.86 60.91V33.45H436.96V60.91H431.86Z" fill="#171717"/>
<path d="M4 50.78C7.31 48.98 11.49 49.87 13.8 52.84C15.33 54.8 15.61 57.57 18.06 58.9C21.88 60.98 24.57 56.98 28.02 56.42C33.17 55.6 37.67 60 36.92 65.14C35.99 71.56 28.05 74.01 23.6 69.27C21.32 66.84 21.41 62.1 17.03 61.88C13.48 61.71 11.61 65.54 7.27 65.27C-0.48 64.79 -2.75 54.46 4 50.77V50.78Z" fill="#171717"/>
<path d="M23.11 11.49C26.27 13.55 27.46 17.65 25.94 21.09C24.93 23.37 22.64 24.92 22.62 27.72C22.6 32.07 27.4 32.54 29.52 35.32C32.68 39.46 30.94 45.51 26.06 47.29C19.96 49.51 14.05 43.68 16.11 37.52C17.17 34.36 21.39 32.19 19.5 28.23C17.97 25.02 13.71 25.19 11.89 21.24C8.64 14.19 16.66 7.29001 23.1 11.49H23.11Z" fill="#171717"/>
<path d="M89.02 47.3C85.56 48.8 81.48 47.54 79.45 44.37C78.1 42.28 78.07 39.5 75.75 37.95C72.14 35.54 69.1 39.28 65.61 39.52C60.41 39.88 56.32 35.09 57.53 30.04C59.03 23.73 67.16 22 71.17 27.12C73.23 29.75 72.71 34.46 77.05 35.07C80.57 35.56 82.78 31.91 87.08 32.57C94.75 33.74 96.09 44.24 89.04 47.3H89.02Z" fill="#171717"/>
<path d="M66.46 84.72C63.5 82.39 62.68 78.2 64.5 74.9C65.71 72.72 68.13 71.38 68.4 68.6C68.81 64.27 64.07 63.37 62.21 60.41C59.43 56 61.71 50.13 66.73 48.8C73 47.13 78.37 53.47 75.76 59.43C74.42 62.48 70.02 64.27 71.55 68.38C72.78 71.71 77.04 71.93 78.5 76.02C81.1 83.33 72.5 89.49 66.46 84.73V84.72Z" fill="#171717"/>
<path d="M35.42 93.61C39.8604 93.61 43.46 90.0104 43.46 85.57C43.46 81.1296 39.8604 77.53 35.42 77.53C30.9796 77.53 27.38 81.1296 27.38 85.57C27.38 90.0104 30.9796 93.61 35.42 93.61Z" fill="#171717"/>
<path d="M50.42 78.62C54.8604 78.62 58.46 75.0204 58.46 70.58C58.46 66.1396 54.8604 62.54 50.42 62.54C45.9796 62.54 42.38 66.1396 42.38 70.58C42.38 75.0204 45.9796 78.62 50.42 78.62Z" fill="#171717"/>
<path d="M42.92 31.82C47.3604 31.82 50.96 28.2204 50.96 23.78C50.96 19.3396 47.3604 15.74 42.92 15.74C38.4796 15.74 34.88 19.3396 34.88 23.78C34.88 28.2204 38.4796 31.82 42.92 31.82Z" fill="#171717"/>
<path d="M57.92 16.83C62.3604 16.83 65.96 13.2304 65.96 8.79001C65.96 4.34964 62.3604 0.75 57.92 0.75C53.4796 0.75 49.88 4.34964 49.88 8.79001C49.88 13.2304 53.4796 16.83 57.92 16.83Z" fill="#171717"/>
</svg>
