<svg width="612" height="85" viewBox="0 0 612 85" fill="none" xmlns="http://www.w3.org/2000/svg">
<path d="M138.08 23H154.8C167.68 23 174.8 30.84 174.8 41.48C174.8 53 166.64 59.64 154.8 59.64H149.04V79H138.08V23ZM149.04 49.96H154.8C159.92 49.96 163.6 47.16 163.6 41.64C163.6 35.8 159.36 33.32 154.8 33.32H149.04V49.96ZM180.409 34.2H191.129V44.12C193.609 37.4 198.489 33.48 206.729 33.48V45.08C205.449 44.92 203.929 44.84 202.569 44.84C194.809 44.84 191.289 49.32 191.289 58.2V79H180.409V34.2ZM231.469 33.24C245.229 33.24 254.909 43.4 254.909 56.6C254.909 69.8 245.229 79.96 231.469 79.96C217.789 79.96 208.109 69.8 208.109 56.6C208.109 43.4 217.789 33.24 231.469 33.24ZM219.069 56.6C219.069 63.96 223.869 69.72 231.469 69.72C239.149 69.72 243.949 63.96 243.949 56.6C243.949 49.24 239.149 43.48 231.469 43.48C223.869 43.48 219.069 49.24 219.069 56.6ZM260.331 34.2H271.051V41.8C273.451 36.04 278.411 33.24 284.171 33.24C290.171 33.24 295.291 36.36 297.531 42.6C299.931 36.36 305.371 33.24 311.371 33.24C319.531 33.24 326.331 38.92 326.331 50.52V79H315.451V52.28C315.451 46.52 312.891 42.52 307.291 42.52C301.531 42.52 298.811 46.84 298.811 52.68V79H287.931V52.28C287.931 46.52 285.291 42.52 279.771 42.52C274.011 42.52 271.211 46.84 271.211 52.68V79H260.331V34.2ZM343.703 56.6C343.703 63.96 348.423 70.04 356.343 70.04C364.103 70.04 368.823 63.96 368.823 56.6C368.823 49.24 364.103 43.16 356.343 43.16C348.423 43.16 343.703 49.24 343.703 56.6ZM333.143 94.2V34.2H343.703V41.88C347.063 36.2 352.503 33.24 359.143 33.24C370.663 33.24 379.783 42.28 379.783 56.6C379.783 70.92 370.663 79.96 359.143 79.96C352.423 79.96 347.063 76.92 344.023 71V94.2H333.143ZM400.996 79.48C390.916 79.48 387.636 74.76 387.636 65.24V43.96H380.836V34.2H387.636V25.8L398.516 22.92V34.2H408.996V43.96H398.516V63.8C398.516 68.04 399.716 69.24 403.396 69.24C405.236 69.24 407.156 68.92 408.916 68.52V78.6C406.436 79.08 403.796 79.48 400.996 79.48ZM414.94 34.2H425.66V44.12C428.14 37.4 433.02 33.48 441.26 33.48V45.08C439.98 44.92 438.46 44.84 437.1 44.84C429.34 44.84 425.82 49.32 425.82 58.2V79H414.94V34.2ZM464.296 79.96C450.856 79.96 445.096 72.12 445.096 60.68V34.2H455.976V60.6C455.976 66.2 458.776 69.8 464.376 69.8C470.216 69.8 472.856 65.96 472.856 60.28V34.2H483.736V60.68C483.736 72.12 477.736 79.96 464.296 79.96ZM490.643 34.2H501.363V41.88C503.763 36.12 508.883 33.24 514.883 33.24C523.283 33.24 529.923 38.92 529.923 50.52V79H519.043V52.28C519.043 46.52 516.243 42.52 510.483 42.52C504.483 42.52 501.523 46.84 501.523 52.68V79H490.643V34.2ZM536.897 67.64H548.897V79H536.897V67.64ZM554.134 67.88C554.134 61.32 558.534 56.68 565.654 54.36L579.334 49.88C578.774 45.24 576.294 43.4 570.854 43.4C567.094 43.4 562.694 44.28 556.534 46.36V35.96C561.814 34.36 567.094 33.24 572.054 33.24C585.094 33.24 590.374 41 590.374 52.12V79H579.814V73C577.254 77.32 572.694 79.96 567.014 79.96C558.934 79.96 554.134 74.68 554.134 67.88ZM565.094 66.44C565.094 69.4 567.574 71.72 571.174 71.72C575.574 71.72 579.494 68.36 579.494 63.4V57.8L570.534 60.68C567.174 61.8 565.094 63.72 565.094 66.44ZM597.206 34.2H608.086V79H597.206V34.2ZM597.046 27.96V19.24H608.246V27.96H597.046Z" fill="#141414"/>
<rect width="112" height="112" rx="30" fill="url(#paint0_linear_942_9)"/>
<path d="M28.4668 74.3163L48.7668 54.0163L28.4668 33.7163" stroke="white" stroke-width="6" stroke-linecap="round" stroke-linejoin="round"/>
<path d="M55.5332 81.083H82.5999" stroke="white" stroke-width="6" stroke-linecap="round" stroke-linejoin="round"/>
<defs>
<linearGradient id="paint0_linear_942_9" x1="56" y1="0" x2="56" y2="112" gradientUnits="userSpaceOnUse">
<stop stop-color="#155DFC"/>
<stop offset="0.466346" stop-color="#114BCC"/>
<stop offset="1" stop-color="#0D3796"/>
</linearGradient>
</defs>
</svg>
